<svg width="24" height="24" viewBox="0 0 24 24" fill="none" xmlns="http://www.w3.org/2000/svg">
<path d="M5.61538 20.0001C5.15513 20.0001 4.77083 19.846 4.4625 19.5376C4.15417 19.2293 4 18.845 4 18.3847V5.61549C4 5.15524 4.15417 4.77095 4.4625 4.46262C4.77083 4.15429 5.15513 4.00012 5.61538 4.00012H14.0019L13.0019 5.00012H5.61538C5.46154 5.00012 5.32052 5.06422 5.1923 5.19242C5.0641 5.32064 5 5.46166 5 5.61549V18.3847C5 18.5386 5.0641 18.6796 5.1923 18.8078C5.32052 18.936 5.46154 19.0001 5.61538 19.0001H18.3846C18.5385 19.0001 18.6795 18.936 18.8077 18.8078C18.9359 18.6796 19 18.5386 19 18.3847V10.8963L20 9.89627V18.3847C20 18.845 19.8458 19.2293 19.5375 19.5376C19.2292 19.846 18.8449 20.0001 18.3846 20.0001H5.61538ZM10 14.0001V11.3847L18.9442 2.44049C19.0545 2.33024 19.1705 2.25396 19.2923 2.21164C19.4141 2.16934 19.5423 2.14819 19.6769 2.14819C19.8026 2.14819 19.9253 2.16934 20.0452 2.21164C20.1651 2.25396 20.2737 2.32384 20.3712 2.42127L21.4827 3.50012C21.5891 3.61037 21.6699 3.73184 21.725 3.86454C21.7801 3.99723 21.8077 4.13088 21.8077 4.26549C21.8077 4.40011 21.7875 4.52736 21.7471 4.64724C21.7067 4.76711 21.6314 4.88218 21.5212 4.99244L12.5192 14.0001H10ZM11 13.0001H12.0923L18.7577 6.33474L18.2115 5.78859L17.6019 5.20397L11 11.8059V13.0001Z" fill="white"/>
</svg>
