<svg xmlns="http://www.w3.org/2000/svg" version="1.1" xmlns:xlink="http://www.w3.org/1999/xlink" xmlns:svgjs="http://svgjs.dev/svgjs" width="1000" height="290" viewBox="0 0 1000 290"><g transform="matrix(1,0,0,1,-0.6060606060606233,0.10639607957233466)"><svg viewBox="0 0 396 115" data-background-color="#7a26c1" preserveAspectRatio="xMidYMid meet" height="290" width="1000" xmlns="http://www.w3.org/2000/svg" xmlns:xlink="http://www.w3.org/1999/xlink"><g id="tight-bounds" transform="matrix(1,0,0,1,0.2400000000000091,-0.04219154879592679)"><svg viewBox="0 0 395.52 115.08438309759185" height="115.08438309759185" width="395.52"><g><svg viewBox="0 0 616.0020117860352 179.23799431955746" height="115.08438309759185" width="395.52"><g><rect width="12.079005566354743" height="179.23799431955746" x="176.7825727999036" y="0" fill="#ffffff" opacity="1" stroke-width="0" stroke="transparent" fill-opacity="1" class="rect-r$-0" data-fill-palette-color="primary" rx="1%" id="r$-0" data-palette-color="#ffffff"></rect></g><g transform="matrix(1,0,0,1,220.48201178603514,0.4458656575113338)"><svg viewBox="0 0 395.52 178.3462630045348" height="178.3462630045348" width="395.52"><g id="textblocktransform"><svg viewBox="0 0 395.52 178.3462630045348" height="178.3462630045348" width="395.52" id="textblock"><g><svg viewBox="0 0 395.52 133.94175358688224" height="133.94175358688224" width="395.52"><g transform="matrix(1,0,0,1,0,0)"><svg width="395.52" viewBox="3.65 -36.83 109.77 37.18" height="133.94175358688224" data-palette-color="#ffffff"><path d="M8.1 0L3.65 0 3.65-25.33 6.2-25.33Q6.93-25.33 7.2-25.05 7.48-24.78 7.58-24.1L7.58-24.1 7.88-20.15Q9.18-22.8 11.09-24.29 13-25.78 15.58-25.78L15.58-25.78Q16.63-25.78 17.48-25.54 18.32-25.3 19.05-24.88L19.05-24.88 18.48-21.55Q18.3-20.93 17.7-20.93L17.7-20.93Q17.35-20.93 16.63-21.16 15.9-21.4 14.6-21.4L14.6-21.4Q12.28-21.4 10.71-20.05 9.15-18.7 8.1-16.13L8.1-16.13 8.1 0ZM34.05-25.73L34.05-25.73Q36.82-25.73 39.06-24.8 41.3-23.88 42.86-22.18 44.42-20.48 45.26-18.06 46.1-15.65 46.1-12.68L46.1-12.68Q46.1-9.68 45.26-7.28 44.42-4.88 42.86-3.18 41.3-1.48 39.06-0.56 36.82 0.35 34.05 0.35L34.05 0.35Q31.27 0.35 29.04-0.56 26.8-1.48 25.22-3.18 23.65-4.88 22.8-7.28 21.95-9.68 21.95-12.68L21.95-12.68Q21.95-15.65 22.8-18.06 23.65-20.48 25.22-22.18 26.8-23.88 29.04-24.8 31.27-25.73 34.05-25.73ZM34.05-3.13L34.05-3.13Q37.8-3.13 39.65-5.64 41.5-8.15 41.5-12.65L41.5-12.65Q41.5-17.18 39.65-19.7 37.8-22.23 34.05-22.23L34.05-22.23Q32.15-22.23 30.75-21.58 29.35-20.93 28.41-19.7 27.47-18.48 27.01-16.69 26.55-14.9 26.55-12.65L26.55-12.65Q26.55-10.4 27.01-8.63 27.47-6.85 28.41-5.64 29.35-4.42 30.75-3.78 32.15-3.13 34.05-3.13ZM54.62 0L51.75 0 51.75-36.83 56.22-36.83 56.22-21.68Q57.8-23.5 59.83-24.61 61.87-25.73 64.5-25.73L64.5-25.73Q66.7-25.73 68.47-24.9 70.25-24.08 71.5-22.44 72.75-20.8 73.42-18.39 74.1-15.98 74.1-12.83L74.1-12.83Q74.1-10.03 73.35-7.61 72.6-5.2 71.18-3.44 69.77-1.68 67.73-0.66 65.7 0.35 63.15 0.35L63.15 0.35Q60.7 0.35 58.98-0.6 57.27-1.55 56-3.25L56-3.25 55.77-0.95Q55.57 0 54.62 0L54.62 0ZM63.05-22.18L63.05-22.18Q60.87-22.18 59.23-21.18 57.6-20.18 56.22-18.35L56.22-18.35 56.22-6.1Q57.42-4.45 58.88-3.78 60.35-3.1 62.15-3.1L62.15-3.1Q65.7-3.1 67.6-5.63 69.5-8.15 69.5-12.83L69.5-12.83Q69.5-15.3 69.06-17.07 68.62-18.85 67.8-19.99 66.97-21.13 65.77-21.65 64.57-22.18 63.05-22.18ZM80.04-25.33L84.49-25.33 84.49 0 80.04 0 80.04-25.33ZM85.49-33.27L85.49-33.27Q85.49-32.63 85.23-32.06 84.97-31.5 84.53-31.06 84.09-30.63 83.52-30.38 82.94-30.13 82.29-30.13L82.29-30.13Q81.64-30.13 81.08-30.38 80.52-30.63 80.08-31.06 79.64-31.5 79.39-32.06 79.14-32.63 79.14-33.27L79.14-33.27Q79.14-33.93 79.39-34.51 79.64-35.1 80.08-35.54 80.52-35.98 81.08-36.23 81.64-36.48 82.29-36.48L82.29-36.48Q82.94-36.48 83.52-36.23 84.09-35.98 84.53-35.54 84.97-35.1 85.23-34.51 85.49-33.93 85.49-33.27ZM96.79 0L92.34 0 92.34-25.33 94.99-25.33Q95.94-25.33 96.19-24.4L96.19-24.4 96.54-21.65Q98.19-23.48 100.23-24.6 102.27-25.73 104.94-25.73L104.94-25.73Q107.02-25.73 108.6-25.04 110.19-24.35 111.25-23.09 112.32-21.83 112.87-20.05 113.42-18.28 113.42-16.13L113.42-16.13 113.42 0 108.97 0 108.97-16.13Q108.97-19 107.65-20.59 106.34-22.18 103.64-22.18L103.64-22.18Q101.67-22.18 99.95-21.23 98.24-20.28 96.79-18.65L96.79-18.65 96.79 0Z" opacity="1" transform="matrix(1,0,0,1,0,0)" fill="#ffffff" class="wordmark-text-0" data-fill-palette-color="primary" id="text-0"></path></svg></g></svg></g><g transform="matrix(1,0,0,1,0,165.56218700665906)"><svg viewBox="0 0 232.209792 12.78407599787573" height="12.78407599787573" width="232.209792"><g transform="matrix(1,0,0,1,0,0)"><svg width="232.209792" viewBox="3.8 -36.5 847.26 46.65" height="12.78407599787573" data-palette-color="#ffffff"><path d="M8.6 0L3.8 0 3.8-35 19.15-35Q22.45-35 25.15-33.58 27.85-32.15 29.45-29.58 31.05-27 31.05-23.55L31.05-23.55Q31.05-20.05 29.28-17.38 27.5-14.7 24.5-13.4L24.5-13.4 28.25-5.8Q28.65-5 29.13-4.63 29.6-4.25 30.5-4.25L30.5-4.25 33-4.25 33 0 29.75 0Q27.8 0 26.33-1 24.85-2 23.9-3.7L23.9-3.7 19.7-12.25Q19.2-12.2 18.63-12.18 18.05-12.15 17.45-12.15L17.45-12.15 8.6-12.15 8.6 0ZM8.6-30.75L8.6-16.4 18.5-16.4Q20.65-16.4 22.43-17.25 24.2-18.1 25.23-19.7 26.25-21.3 26.25-23.55L26.25-23.55Q26.25-25.85 25.2-27.45 24.15-29.05 22.4-29.9 20.65-30.75 18.55-30.75L18.55-30.75 8.6-30.75ZM48.55 0.6L48.55 0.6Q44.65 0.6 41.65-1.18 38.65-2.95 36.9-5.98 35.15-9 35.15-12.75L35.15-12.75Q35.15-16.5 36.9-19.53 38.65-22.55 41.65-24.33 44.65-26.1 48.55-26.1L48.55-26.1Q52.45-26.1 55.47-24.33 58.5-22.55 60.22-19.53 61.95-16.5 61.95-12.75L61.95-12.75Q61.95-9 60.22-5.98 58.5-2.95 55.47-1.18 52.45 0.6 48.55 0.6ZM48.55-3.35L48.55-3.35Q51.2-3.35 53.15-4.6 55.1-5.85 56.2-7.98 57.3-10.1 57.3-12.75L57.3-12.75Q57.3-15.4 56.2-17.53 55.1-19.65 53.15-20.9 51.2-22.15 48.55-22.15L48.55-22.15Q45.95-22.15 43.97-20.9 42-19.65 40.9-17.53 39.8-15.4 39.8-12.75L39.8-12.75Q39.8-10.1 40.9-7.98 42-5.85 43.97-4.6 45.95-3.35 48.55-3.35ZM80.75 0.6L80.75 0.6Q77.05 0.6 74.1-1 71.15-2.6 69.42-5.63 67.7-8.65 67.7-12.9L67.7-12.9 67.7-36.5 72.3-36.5 72.3-20.95 72.4-20.95Q73.25-22.5 74.62-23.65 76-24.8 77.77-25.45 79.55-26.1 81.5-26.1L81.5-26.1Q85.05-26.1 87.85-24.5 90.65-22.9 92.27-19.98 93.9-17.05 93.9-13.05L93.9-13.05Q93.9-9.9 92.92-7.38 91.95-4.85 90.2-3.05 88.45-1.25 86.05-0.33 83.65 0.6 80.75 0.6ZM80.75-3.35L80.75-3.35Q83.1-3.35 85.02-4.5 86.95-5.65 88.1-7.75 89.25-9.85 89.25-12.75L89.25-12.75Q89.25-15.55 88.12-17.65 87-19.75 85.1-20.95 83.2-22.15 80.8-22.15L80.8-22.15Q78.45-22.15 76.52-21 74.6-19.85 73.47-17.73 72.35-15.6 72.35-12.7L72.35-12.7Q72.35-9.85 73.47-7.75 74.6-5.65 76.52-4.5 78.45-3.35 80.75-3.35ZM104.44 0L99.79 0 99.79-25.5 104.44-25.5 104.44 0ZM102.14-29.55L102.14-29.55Q100.89-29.55 99.97-30.48 99.04-31.4 99.04-32.65L99.04-32.65Q99.04-33.9 99.97-34.83 100.89-35.75 102.14-35.75L102.14-35.75Q103.39-35.75 104.32-34.83 105.24-33.9 105.24-32.65L105.24-32.65Q105.24-31.4 104.32-30.48 103.39-29.55 102.14-29.55ZM116.29 0L111.69 0 111.69-14.75Q111.69-18.15 113.22-20.7 114.74-23.25 117.44-24.68 120.14-26.1 123.59-26.1L123.59-26.1Q127.09-26.1 129.77-24.68 132.44-23.25 133.97-20.7 135.49-18.15 135.49-14.75L135.49-14.75 135.49 0 130.89 0 130.89-14.7Q130.89-17 129.87-18.68 128.84-20.35 127.17-21.25 125.49-22.15 123.59-22.15L123.59-22.15Q121.69-22.15 120.02-21.25 118.34-20.35 117.32-18.68 116.29-17 116.29-14.7L116.29-14.7 116.29 0ZM144.34-19.35L144.34-19.35Q142.99-19.35 142.01-20.33 141.04-21.3 141.04-22.65L141.04-22.65Q141.04-24 142.01-24.98 142.99-25.95 144.34-25.95L144.34-25.95Q145.69-25.95 146.66-24.98 147.64-24 147.64-22.65L147.64-22.65Q147.64-21.75 147.21-21 146.79-20.25 146.04-19.8 145.29-19.35 144.34-19.35ZM144.34 0.5L144.34 0.5Q142.99 0.5 142.01-0.48 141.04-1.45 141.04-2.8L141.04-2.8Q141.04-4.15 142.01-5.13 142.99-6.1 144.34-6.1L144.34-6.1Q145.69-6.1 146.66-5.13 147.64-4.15 147.64-2.8L147.64-2.8Q147.64-1.9 147.21-1.15 146.79-0.4 146.04 0.05 145.29 0.5 144.34 0.5ZM190.03 0.6L190.03 0.6Q187.23 0.6 185.11-0.68 182.98-1.95 181.78-4.15 180.58-6.35 180.58-9.1L180.58-9.1 180.58-26.55Q180.58-27.9 179.93-29 179.28-30.1 178.18-30.75 177.08-31.4 175.78-31.4L175.78-31.4Q174.48-31.4 173.41-30.75 172.33-30.1 171.71-29 171.08-27.9 171.08-26.55L171.08-26.55 171.08 0 166.28 0 166.28-25.9Q166.28-28.65 167.48-30.85 168.68-33.05 170.83-34.33 172.98-35.6 175.78-35.6L175.78-35.6Q178.63-35.6 180.78-34.33 182.93-33.05 184.13-30.85 185.33-28.65 185.33-25.9L185.33-25.9 185.33-8.45Q185.33-7.1 185.98-6 186.63-4.9 187.71-4.25 188.78-3.6 190.03-3.6L190.03-3.6Q191.28-3.6 192.33-4.25 193.38-4.9 194.01-6 194.63-7.1 194.63-8.45L194.63-8.45 194.63-35 199.43-35 199.43-9.1Q199.43-6.35 198.23-4.15 197.03-1.95 194.93-0.68 192.83 0.6 190.03 0.6ZM226.08 0L219.53 0Q215.33 0 212.08-1.58 208.83-3.15 207.01-6.03 205.18-8.9 205.18-12.75L205.18-12.75Q205.18-16.55 206.73-19.58 208.28-22.6 211.03-24.35 213.78-26.1 217.43-26.1L217.43-26.1Q221.38-26.1 224.01-24.4 226.63-22.7 227.93-19.83 229.23-16.95 229.23-13.4L229.23-13.4Q229.23-12.85 229.21-12.25 229.18-11.65 229.08-11.2L229.08-11.2 210.08-11.2Q210.33-8.85 211.63-7.23 212.93-5.6 214.96-4.78 216.98-3.95 219.43-3.95L219.43-3.95 226.08-3.95 226.08 0ZM210.03-14.45L210.03-14.45 224.58-14.45Q224.58-15.4 224.38-16.48 224.18-17.55 223.68-18.57 223.18-19.6 222.36-20.43 221.53-21.25 220.31-21.75 219.08-22.25 217.43-22.25L217.43-22.25Q215.68-22.25 214.36-21.58 213.03-20.9 212.08-19.78 211.13-18.65 210.63-17.25 210.13-15.85 210.03-14.45ZM254.58 0L248.03 0Q243.83 0 240.58-1.58 237.33-3.15 235.5-6.03 233.68-8.9 233.68-12.75L233.68-12.75Q233.68-16.55 235.23-19.58 236.78-22.6 239.53-24.35 242.28-26.1 245.93-26.1L245.93-26.1Q249.88-26.1 252.5-24.4 255.13-22.7 256.43-19.83 257.73-16.95 257.73-13.4L257.73-13.4Q257.73-12.85 257.7-12.25 257.68-11.65 257.58-11.2L257.58-11.2 238.58-11.2Q238.83-8.85 240.13-7.23 241.43-5.6 243.45-4.78 245.48-3.95 247.93-3.95L247.93-3.95 254.58-3.95 254.58 0ZM238.53-14.45L238.53-14.45 253.08-14.45Q253.08-15.4 252.88-16.48 252.68-17.55 252.18-18.57 251.68-19.6 250.85-20.43 250.03-21.25 248.8-21.75 247.58-22.25 245.93-22.25L245.93-22.25Q244.18-22.25 242.85-21.58 241.53-20.9 240.58-19.78 239.63-18.65 239.13-17.25 238.63-15.85 238.53-14.45ZM275.32 0.6L275.32 0.6Q279.03 0.6 281.98-1 284.93-2.6 286.65-5.63 288.38-8.65 288.38-12.9L288.38-12.9 288.38-36.5 283.78-36.5 283.78-20.95 283.68-20.95Q282.82-22.5 281.45-23.65 280.07-24.8 278.3-25.45 276.53-26.1 274.57-26.1L274.57-26.1Q271.03-26.1 268.23-24.5 265.43-22.9 263.8-19.98 262.18-17.05 262.18-13.05L262.18-13.05Q262.18-9.9 263.15-7.38 264.13-4.85 265.88-3.05 267.63-1.25 270.03-0.33 272.43 0.6 275.32 0.6ZM275.32-3.35L275.32-3.35Q272.98-3.35 271.05-4.5 269.13-5.65 267.98-7.75 266.82-9.85 266.82-12.75L266.82-12.75Q266.82-15.55 267.95-17.65 269.07-19.75 270.98-20.95 272.88-22.15 275.28-22.15L275.28-22.15Q277.63-22.15 279.55-21 281.48-19.85 282.6-17.73 283.73-15.6 283.73-12.7L283.73-12.7Q283.73-9.85 282.6-7.75 281.48-5.65 279.55-4.5 277.63-3.35 275.32-3.35ZM307.92 0L295.17 0 295.17-3.95 307.37-3.95Q308.57-3.95 309.45-4.48 310.32-5 310.77-5.85 311.22-6.7 311.22-7.65L311.22-7.65Q311.22-8.55 310.82-9.33 310.42-10.1 309.6-10.58 308.77-11.05 307.62-11.05L307.62-11.05 302.47-11.05Q300.02-11.05 298.2-11.88 296.37-12.7 295.35-14.3 294.32-15.9 294.32-18.2L294.32-18.2Q294.32-20.15 295.27-21.8 296.22-23.45 297.92-24.48 299.62-25.5 301.82-25.5L301.82-25.5 313.57-25.5 313.57-21.55 302.27-21.55Q300.72-21.55 299.82-20.6 298.92-19.65 298.92-18.35L298.92-18.35Q298.92-17.1 299.85-16.18 300.77-15.25 302.47-15.25L302.47-15.25 307.37-15.25Q310.12-15.25 312-14.38 313.87-13.5 314.85-11.85 315.82-10.2 315.82-7.8L315.82-7.8Q315.82-5.75 314.82-3.98 313.82-2.2 312.05-1.1 310.27 0 307.92 0L307.92 0ZM350.82 0L335.12 0 335.12-4.25 350.27-4.25Q352.02-4.25 353.27-5.08 354.52-5.9 355.22-7.2 355.92-8.5 355.92-9.95L355.92-9.95Q355.92-11.45 355.24-12.73 354.57-14 353.34-14.78 352.12-15.55 350.37-15.55L350.37-15.55 343.77-15.55Q340.82-15.55 338.57-16.78 336.32-18 335.04-20.18 333.77-22.35 333.77-25.1L333.77-25.1Q333.77-27.9 334.99-30.15 336.22-32.4 338.44-33.7 340.67-35 343.57-35L343.57-35 358.42-35 358.42-30.75 344.02-30.75Q342.37-30.75 341.12-29.98 339.87-29.2 339.22-27.98 338.57-26.75 338.57-25.35L338.57-25.35Q338.57-24 339.19-22.78 339.82-21.55 341.04-20.8 342.27-20.05 343.87-20.05L343.87-20.05 350.62-20.05Q353.77-20.05 356.02-18.8 358.27-17.55 359.47-15.4 360.67-13.25 360.67-10.5L360.67-10.5Q360.67-7.45 359.44-5.08 358.22-2.7 355.97-1.35 353.72 0 350.82 0L350.82 0ZM378.47 0.6L378.47 0.6Q374.57 0.6 371.57-1.18 368.57-2.95 366.82-5.98 365.07-9 365.07-12.75L365.07-12.75Q365.07-16.5 366.82-19.53 368.57-22.55 371.57-24.33 374.57-26.1 378.47-26.1L378.47-26.1Q382.37-26.1 385.39-24.33 388.42-22.55 390.14-19.53 391.87-16.5 391.87-12.75L391.87-12.75Q391.87-9 390.14-5.98 388.42-2.95 385.39-1.18 382.37 0.6 378.47 0.6ZM378.47-3.35L378.47-3.35Q381.12-3.35 383.07-4.6 385.02-5.85 386.12-7.98 387.22-10.1 387.22-12.75L387.22-12.75Q387.22-15.4 386.12-17.53 385.02-19.65 383.07-20.9 381.12-22.15 378.47-22.15L378.47-22.15Q375.87-22.15 373.89-20.9 371.92-19.65 370.82-17.53 369.72-15.4 369.72-12.75L369.72-12.75Q369.72-10.1 370.82-7.98 371.92-5.85 373.89-4.6 375.87-3.35 378.47-3.35ZM402.36 0L397.76 0 397.76-36.5 402.36-36.5 402.36 0ZM420.41 0.6L420.41 0.6Q418.71 0.6 417.34-0.38 415.96-1.35 415.31-3.15L415.31-3.15 407.01-25.5 412.06-25.5 419.46-4.85Q419.66-4.35 419.91-4.15 420.16-3.95 420.46-3.95L420.46-3.95Q420.81-3.95 421.04-4.15 421.26-4.35 421.46-4.85L421.46-4.85 428.91-25.5 433.86-25.5 425.56-3.15Q424.86-1.35 423.51-0.38 422.16 0.6 420.41 0.6ZM457.01 0L450.46 0Q446.26 0 443.01-1.58 439.76-3.15 437.93-6.03 436.11-8.9 436.11-12.75L436.11-12.75Q436.11-16.55 437.66-19.58 439.21-22.6 441.96-24.35 444.71-26.1 448.36-26.1L448.36-26.1Q452.31-26.1 454.93-24.4 457.56-22.7 458.86-19.83 460.16-16.95 460.16-13.4L460.16-13.4Q460.16-12.85 460.13-12.25 460.11-11.65 460.01-11.2L460.01-11.2 441.01-11.2Q441.26-8.85 442.56-7.23 443.86-5.6 445.88-4.78 447.91-3.95 450.36-3.95L450.36-3.95 457.01-3.95 457.01 0ZM440.96-14.45L440.96-14.45 455.51-14.45Q455.51-15.4 455.31-16.48 455.11-17.55 454.61-18.57 454.11-19.6 453.28-20.43 452.46-21.25 451.23-21.75 450.01-22.25 448.36-22.25L448.36-22.25Q446.61-22.25 445.28-21.58 443.96-20.9 443.01-19.78 442.06-18.65 441.56-17.25 441.06-15.85 440.96-14.45ZM477.76 0.6L477.76 0.6Q481.46 0.6 484.41-1 487.36-2.6 489.08-5.63 490.81-8.65 490.81-12.9L490.81-12.9 490.81-36.5 486.21-36.5 486.21-20.95 486.11-20.95Q485.26-22.5 483.88-23.65 482.51-24.8 480.73-25.45 478.96-26.1 477.01-26.1L477.01-26.1Q473.46-26.1 470.66-24.5 467.86-22.9 466.23-19.98 464.61-17.05 464.61-13.05L464.61-13.05Q464.61-9.9 465.58-7.38 466.56-4.85 468.31-3.05 470.06-1.25 472.46-0.33 474.86 0.6 477.76 0.6ZM477.76-3.35L477.76-3.35Q475.41-3.35 473.48-4.5 471.56-5.65 470.41-7.75 469.26-9.85 469.26-12.75L469.26-12.75Q469.26-15.55 470.38-17.65 471.51-19.75 473.41-20.95 475.31-22.15 477.71-22.15L477.71-22.15Q480.06-22.15 481.98-21 483.91-19.85 485.03-17.73 486.16-15.6 486.16-12.7L486.16-12.7Q486.16-9.85 485.03-7.75 483.91-5.65 481.98-4.5 480.06-3.35 477.76-3.35ZM500.1 7.5L496.2 7.5 498.45 0.3Q497.35-0.05 496.78-0.98 496.2-1.9 496.2-2.85L496.2-2.85Q496.2-4.25 497.18-5.18 498.15-6.1 499.5-6.1L499.5-6.1Q501-6.1 501.9-5.1 502.8-4.1 502.8-2.7L502.8-2.7Q502.8-1.75 502.65-0.93 502.5-0.1 502.1 0.95L502.1 0.95 500.1 7.5ZM538.35 0L536 0Q533.15 0 531.07-1.23 529-2.45 527.87-4.58 526.75-6.7 526.75-9.35L526.75-9.35 526.75-30.75 516.1-30.75 516.1-35 542.2-35 542.2-30.75 531.55-30.75 531.55-8.75Q531.55-6.8 532.77-5.53 534-4.25 536.05-4.25L536.05-4.25 538.35-4.25 538.35 0ZM556.49 0.6L556.49 0.6Q552.59 0.6 549.59-1.18 546.59-2.95 544.84-5.98 543.09-9 543.09-12.75L543.09-12.75Q543.09-16.5 544.84-19.53 546.59-22.55 549.59-24.33 552.59-26.1 556.49-26.1L556.49-26.1Q560.39-26.1 563.42-24.33 566.44-22.55 568.17-19.53 569.89-16.5 569.89-12.75L569.89-12.75Q569.89-9 568.17-5.98 566.44-2.95 563.42-1.18 560.39 0.6 556.49 0.6ZM556.49-3.35L556.49-3.35Q559.14-3.35 561.09-4.6 563.04-5.85 564.14-7.98 565.24-10.1 565.24-12.75L565.24-12.75Q565.24-15.4 564.14-17.53 563.04-19.65 561.09-20.9 559.14-22.15 556.49-22.15L556.49-22.15Q553.89-22.15 551.92-20.9 549.94-19.65 548.84-17.53 547.74-15.4 547.74-12.75L547.74-12.75Q547.74-10.1 548.84-7.98 549.94-5.85 551.92-4.6 553.89-3.35 556.49-3.35ZM592.99 10.15L579.64 10.15 579.64 6.2 592.14 6.2Q593.99 6.2 595.02 5.1 596.04 4 596.04 2.2L596.04 2.2 596.04-4.8 595.94-4.8Q594.99-3.35 593.64-2.2 592.29-1.05 590.54-0.38 588.79 0.3 586.59 0.3L586.59 0.3Q582.99 0.3 580.24-1.38 577.49-3.05 575.94-6.03 574.39-9 574.39-12.85L574.39-12.85Q574.39-16.6 575.94-19.6 577.49-22.6 580.42-24.35 583.34-26.1 587.49-26.1L587.49-26.1Q591.49-26.1 594.44-24.4 597.39-22.7 599.02-19.68 600.64-16.65 600.64-12.6L600.64-12.6 600.64 2.5Q600.64 6 598.59 8.08 596.54 10.15 592.99 10.15L592.99 10.15ZM587.44-3.65L587.44-3.65Q589.99-3.65 591.92-4.85 593.84-6.05 594.92-8.13 595.99-10.2 595.99-12.8L595.99-12.8Q595.99-15.45 594.94-17.55 593.89-19.65 591.99-20.88 590.09-22.1 587.44-22.1L587.44-22.1Q584.84-22.1 582.97-20.88 581.09-19.65 580.07-17.53 579.04-15.4 579.04-12.75L579.04-12.75Q579.04-10.25 580.07-8.18 581.09-6.1 582.97-4.88 584.84-3.65 587.44-3.65ZM627.29 0L620.74 0Q616.54 0 613.29-1.58 610.04-3.15 608.21-6.03 606.39-8.9 606.39-12.75L606.39-12.75Q606.39-16.55 607.94-19.58 609.49-22.6 612.24-24.35 614.99-26.1 618.64-26.1L618.64-26.1Q622.59-26.1 625.21-24.4 627.84-22.7 629.14-19.83 630.44-16.95 630.44-13.4L630.44-13.4Q630.44-12.85 630.41-12.25 630.39-11.65 630.29-11.2L630.29-11.2 611.29-11.2Q611.54-8.85 612.84-7.23 614.14-5.6 616.16-4.78 618.19-3.95 620.64-3.95L620.64-3.95 627.29-3.95 627.29 0ZM611.24-14.45L611.24-14.45 625.79-14.45Q625.79-15.4 625.59-16.48 625.39-17.55 624.89-18.57 624.39-19.6 623.56-20.43 622.74-21.25 621.51-21.75 620.29-22.25 618.64-22.25L618.64-22.25Q616.89-22.25 615.56-21.58 614.24-20.9 613.29-19.78 612.34-18.65 611.84-17.25 611.34-15.85 611.24-14.45ZM650.99 0L644.99 0Q641.59 0 639.66-1.95 637.74-3.9 637.74-7.25L637.74-7.25 637.74-31.9 642.34-31.9 642.34-7.55Q642.34-5.9 643.26-4.93 644.19-3.95 645.84-3.95L645.84-3.95 650.99-3.95 650.99 0ZM651.09-21.55L633.34-21.55 633.34-25.5 651.09-25.5 651.09-21.55ZM661.23 0L656.63 0 656.63-36.5 661.23-36.5 661.23-22.2Q662.78-24.2 665.01-25.15 667.23-26.1 669.63-26.1L669.63-26.1Q673.03-26.1 675.53-24.68 678.03-23.25 679.43-20.7 680.83-18.15 680.83-14.75L680.83-14.75 680.83 0 676.23 0 676.23-14.7Q676.23-17 675.18-18.68 674.13-20.35 672.41-21.25 670.68-22.15 668.73-22.15L668.73-22.15Q666.78-22.15 665.08-21.28 663.38-20.4 662.31-18.75 661.23-17.1 661.23-14.8L661.23-14.8 661.23 0ZM707.63 0L701.08 0Q696.88 0 693.63-1.58 690.38-3.15 688.56-6.03 686.73-8.9 686.73-12.75L686.73-12.75Q686.73-16.55 688.28-19.58 689.83-22.6 692.58-24.35 695.33-26.1 698.98-26.1L698.98-26.1Q702.93-26.1 705.56-24.4 708.18-22.7 709.48-19.83 710.78-16.95 710.78-13.4L710.78-13.4Q710.78-12.85 710.76-12.25 710.73-11.65 710.63-11.2L710.63-11.2 691.63-11.2Q691.88-8.85 693.18-7.23 694.48-5.6 696.51-4.78 698.53-3.95 700.98-3.95L700.98-3.95 707.63-3.95 707.63 0ZM691.58-14.45L691.58-14.45 706.13-14.45Q706.13-15.4 705.93-16.48 705.73-17.55 705.23-18.57 704.73-19.6 703.91-20.43 703.08-21.25 701.86-21.75 700.63-22.25 698.98-22.25L698.98-22.25Q697.23-22.25 695.91-21.58 694.58-20.9 693.63-19.78 692.68-18.65 692.18-17.25 691.68-15.85 691.58-14.45ZM721.08 0L716.48 0 716.48-18.25Q716.48-21.65 718.4-23.58 720.33-25.5 723.73-25.5L723.73-25.5 728.98-25.5 728.98-21.55 724.58-21.55Q722.93-21.55 722-20.6 721.08-19.65 721.08-17.95L721.08-17.95 721.08 0ZM765.92 0L746.62 0 746.62-35 765.62-35Q768.27-35 770.27-33.83 772.27-32.65 773.42-30.65 774.57-28.65 774.57-26.1L774.57-26.1Q774.57-24.35 773.85-22.73 773.12-21.1 771.82-19.9 770.52-18.7 768.72-18.1L768.72-18.1Q770.77-17.6 772.27-16.3 773.77-15 774.65-13.2 775.52-11.4 775.52-9.3L775.52-9.3Q775.52-6.7 774.32-4.6 773.12-2.5 771-1.25 768.87 0 765.92 0L765.92 0ZM751.42-15.8L751.42-4.25 764.82-4.25Q766.67-4.25 767.97-5.08 769.27-5.9 770-7.23 770.72-8.55 770.72-10.05L770.72-10.05Q770.72-11.6 769.97-12.88 769.22-14.15 767.87-14.98 766.52-15.8 764.67-15.8L764.67-15.8 751.42-15.8ZM751.42-30.75L751.42-19.85 763.97-19.85Q765.72-19.85 767.05-20.63 768.37-21.4 769.1-22.68 769.82-23.95 769.82-25.35L769.82-25.35Q769.82-26.8 769.12-28.03 768.42-29.25 767.17-30 765.92-30.75 764.27-30.75L764.27-30.75 751.42-30.75ZM793.22 0.6L793.22 0.6Q789.77 0.6 787.05-0.83 784.32-2.25 782.8-4.8 781.27-7.35 781.27-10.75L781.27-10.75 781.27-25.5 785.92-25.5 785.92-10.8Q785.92-8.5 786.92-6.83 787.92-5.15 789.6-4.25 791.27-3.35 793.17-3.35L793.17-3.35Q795.12-3.35 796.8-4.25 798.47-5.15 799.5-6.83 800.52-8.5 800.52-10.8L800.52-10.8 800.52-25.5 805.17-25.5 805.17-10.75Q805.17-7.35 803.62-4.8 802.07-2.25 799.37-0.83 796.67 0.6 793.22 0.6ZM817.12 0L812.47 0 812.47-25.5 817.12-25.5 817.12 0ZM814.82-29.55L814.82-29.55Q813.57-29.55 812.64-30.48 811.72-31.4 811.72-32.65L811.72-32.65Q811.72-33.9 812.64-34.83 813.57-35.75 814.82-35.75L814.82-35.75Q816.07-35.75 816.99-34.83 817.92-33.9 817.92-32.65L817.92-32.65Q817.92-31.4 816.99-30.48 816.07-29.55 814.82-29.55ZM828.97 0L824.37 0 824.37-36.5 828.97-36.5 828.97 0ZM850.96 0L844.96 0Q841.56 0 839.64-1.95 837.71-3.9 837.71-7.25L837.71-7.25 837.71-31.9 842.31-31.9 842.31-7.55Q842.31-5.9 843.24-4.93 844.16-3.95 845.81-3.95L845.81-3.95 850.96-3.95 850.96 0ZM851.06-21.55L833.31-21.55 833.31-25.5 851.06-25.5 851.06-21.55Z" opacity="1" transform="matrix(1,0,0,1,0,0)" fill="#ffffff" class="slogan-text-1" data-fill-palette-color="secondary" id="text-1"></path></svg></g></svg></g></svg></g></svg></g><g transform="matrix(1,0,0,1,0,0.4458656575113338)"><svg viewBox="0 0 145.16213938012677 178.3462630045348" height="178.3462630045348" width="145.16213938012677"><g><svg xmlns="http://www.w3.org/2000/svg" viewBox="2.0001326380842506 3.028242780857732 47.99993177678895 58.972735545360166" x="0" y="0" height="178.3462630045348" width="145.16213938012677" class="icon-icon-0" data-fill-palette-color="accent" id="icon-0"><g fill="#ffffff" data-fill-palette-color="accent"><path d="M41.939 11.454A9.5 9.5 0 0 0 23 12.5v0.091L7.42 45.187h0l-0.621 1.3c0 0.007 0 0.015-0.006 0.022s-0.01 0.013-0.013 0.021l-4.7 11.08a1 1 0 0 0 1.53 1.184L15.04 50h7.842l-0.777 1.553a1 1 0 0 0-0.024 0.841l2.733 6.377-1.521 1.522a1 1 0 0 0 1.414 1.414l1.534-1.533 4.387 1.755A1 1 0 0 0 31 62h0a1.014 1.014 0 0 0 0.336-0.066c0.033-0.012 0.061-0.028 0.093-0.043a1.01 1.01 0 0 0 0.223-0.149c0.016-0.014 0.037-0.019 0.053-0.035l1.534-1.533 4.387 1.755a1 1 0 0 0 0.744-1.858l-4.617-1.846L31.1 52.033l1.242-2.476A12.921 12.921 0 0 0 42 37V19h7a1 1 0 0 0 0.6-1.8ZM32.5 5A7.5 7.5 0 0 1 40 12.5V30.786l-4.314-3.8A19.986 19.986 0 0 0 25.455 12.238l-0.014-0.009-0.274-0.153c-0.047-0.026-0.1-0.049-0.142-0.075A7.5 7.5 0 0 1 32.5 5ZM15.147 47.76h-0.016a17.862 17.862 0 0 1-4.758-0.858c0.551 0.046 1.1 0.08 1.649 0.08A19.993 19.993 0 0 0 30.406 19.164a17.985 17.985 0 0 1-15.259 28.6Zm9.368-33.7A17.989 17.989 0 0 1 9.8 44.844ZM8.224 48.245a19.98 19.98 0 0 0 4.209 1.234L5.407 54.887Zm23.59 10.526l-1.055 1.055-4-1.6L24.1 52.032 25.118 50H29c0.3 0 0.606-0.029 0.909-0.049l-0.8 1.6a1 1 0 0 0-0.025 0.842Zm-0.383-11.037A11.158 11.158 0 0 1 29 48H24.106A19.875 19.875 0 0 0 35.87 29.811L40 33.451V37A10.942 10.942 0 0 1 31.431 47.734ZM42 17V14l4 3Z" fill="#ffffff" data-fill-palette-color="accent"></path><path d="M35 15a3 3 0 1 0-3-3A3 3 0 0 0 35 15Zm0-4a1 1 0 1 1-1 1A1 1 0 0 1 35 11Z" fill="#ffffff" data-fill-palette-color="accent"></path></g></svg></g></svg></g></svg></g><defs></defs></svg><rect width="395.52" height="115.08438309759185" fill="none" stroke="none" visibility="hidden"></rect></g></svg></g></svg>