<svg width="24" height="24" viewBox="0 0 24 24" fill="none" xmlns="http://www.w3.org/2000/svg">
<path d="M7.99988 19.3845V9.60948C7.99988 9.16205 8.15821 8.78192 8.47488 8.46911C8.79155 8.15629 9.1736 7.99988 9.62103 7.99988H19.3845C19.8319 7.99988 20.213 8.15725 20.5278 8.47198C20.8425 8.78673 20.9999 9.16782 20.9999 9.61526V16.5768L16.5768 20.9999H9.61526C9.16782 20.9999 8.78673 20.8425 8.47198 20.5278C8.15725 20.213 7.99988 19.8319 7.99988 19.3845ZM3.02488 6.59603C2.9377 6.1486 3.02359 5.74571 3.28256 5.38738C3.54154 5.02905 3.89475 4.80629 4.34218 4.71911L13.9614 3.02488C14.4089 2.9377 14.8117 3.02359 15.1701 3.28256C15.5284 3.54154 15.7512 3.89475 15.8384 4.34218L16.0499 5.61526H15.0383L14.8249 4.42296C14.7992 4.28192 14.7223 4.16975 14.5941 4.08643C14.4659 4.0031 14.3249 3.97425 14.171 3.99988L4.51911 5.71336C4.33962 5.73899 4.20501 5.82231 4.11526 5.96333C4.02552 6.10436 3.99347 6.26462 4.01911 6.44411L5.61526 15.4595V17.396C5.38706 17.2845 5.19315 17.1262 5.03353 16.921C4.87391 16.7159 4.76911 16.4807 4.71911 16.2153L3.02488 6.59603ZM8.99988 9.61526V19.3845C8.99988 19.564 9.05757 19.7114 9.17296 19.8268C9.28834 19.9422 9.43577 19.9999 9.61526 19.9999H15.9999V15.9999H19.9999V9.61526C19.9999 9.43577 19.9422 9.28834 19.8268 9.17296C19.7114 9.05757 19.564 8.99988 19.3845 8.99988H9.61526C9.43577 8.99988 9.28834 9.05757 9.17296 9.17296C9.05757 9.28834 8.99988 9.43577 8.99988 9.61526Z" fill="#FF6823"/>
</svg>
